<svg width="55" height="63" viewBox="0 0 55 63" fill="none" xmlns="http://www.w3.org/2000/svg">
<path d="M27.5 63C12.3085 63 0 48.9012 0 31.5C0 14.0988 12.3085 0 27.5 0C42.6915 0 55 14.0988 55 31.5C55 48.9012 42.6915 63 27.5 63ZM14.87 33.6593L29.8952 50.87C30.9375 52.0639 32.623 52.0639 33.6542 50.87L35.5393 48.7107C36.5817 47.5167 36.5817 45.5861 35.5393 44.4048L24.2732 31.5L35.5393 18.5952C36.5817 17.4012 36.5817 15.4706 35.5393 14.2893L33.6542 12.13C32.6119 10.9361 30.9264 10.9361 29.8952 12.13L14.87 29.3407C13.8276 30.5347 13.8276 32.4653 14.87 33.6593Z" fill="#5F3636"/>
</svg>
